<svg width="330" height="330" viewBox="0 0 330 330" fill="none" xmlns="http://www.w3.org/2000/svg">
<path d="M165 0C74.019 0 0 74.019 0 165C0 255.981 74.019 330 165 330C255.981 330 330 255.981 330 165C330 74.019 255.981 0 165 0ZM165 300C90.56 300 30 239.439 30 165C30 90.561 90.56 30 165 30C239.44 30 300 90.561 300 165C300 239.439 239.439 300 165 300Z" fill="#DE5D06"/>
<path d="M215.911 200.912H114.088C108.021 200.912 102.551 204.566 100.23 210.172C97.9087 215.777 99.1917 222.229 103.482 226.519C119.914 242.95 141.762 252 165 252C188.238 252 210.086 242.95 226.518 226.519C230.808 222.229 232.091 215.778 229.77 210.172C227.448 204.566 221.978 200.912 215.911 200.912Z" fill="#DE5D06"/>
<path d="M115.14 147.14C118.86 143.42 121 138.26 121 133C121 127.74 118.86 122.58 115.14 118.859C111.42 115.14 106.26 113 101 113C95.73 113 90.58 115.14 86.86 118.859C83.13 122.58 81 127.74 81 133C81 138.26 83.13 143.42 86.86 147.14C90.58 150.86 95.74 153 101 153C106.26 153 111.42 150.859 115.14 147.14Z" fill="#DE5D06"/>
<path d="M229 113C223.74 113 218.58 115.14 214.86 118.859C211.14 122.58 209 127.729 209 133C209 138.26 211.14 143.42 214.86 147.14C218.58 150.86 223.74 153 229 153C234.26 153 239.42 150.859 243.14 147.14C246.87 143.42 249 138.26 249 133C249 127.74 246.87 122.58 243.14 118.859C239.42 115.14 234.27 113 229 113Z" fill="#DE5D06"/>
</svg>
