<svg width="50" height="50" viewBox="0 0 50 50" fill="none" xmlns="http://www.w3.org/2000/svg">
<path d="M21.25 33.7503C15 35.6253 15 30.6253 12.5 30.0003M30 37.5003V32.6628C30.0469 32.0667 29.9664 31.4675 29.7638 30.905C29.5612 30.3425 29.2412 29.8296 28.825 29.4003C32.75 28.9628 36.875 27.4753 36.875 20.6503C36.8747 18.9051 36.2034 17.2268 35 15.9628C35.5698 14.4359 35.5295 12.7482 34.8875 11.2503C34.8875 11.2503 33.4125 10.8128 30 13.1003C27.135 12.3238 24.115 12.3238 21.25 13.1003C17.8375 10.8128 16.3625 11.2503 16.3625 11.2503C15.7205 12.7482 15.6802 14.4359 16.25 15.9628C15.0377 17.2362 14.3657 18.9296 14.375 20.6878C14.375 27.4628 18.5 28.9503 22.425 29.4378C22.0137 29.8628 21.6966 30.3695 21.4941 30.9252C21.2917 31.4808 21.2085 32.0729 21.25 32.6628V37.5003" stroke="white" stroke-width="2" stroke-linecap="round" stroke-linejoin="round"/>
<circle cx="25" cy="25" r="24.5" stroke="#535863"/>
</svg>
