<svg width="50" height="50" viewBox="0 0 50 50" fill="none" xmlns="http://www.w3.org/2000/svg">
<path d="M31.25 12.5H18.75C15.2982 12.5 12.5 15.2982 12.5 18.75V31.25C12.5 34.7018 15.2982 37.5 18.75 37.5H31.25C34.7018 37.5 37.5 34.7018 37.5 31.25V18.75C37.5 15.2982 34.7018 12.5 31.25 12.5Z" stroke="white" stroke-width="2" stroke-linecap="round" stroke-linejoin="round"/>
<path d="M30.0006 24.2119C30.1549 25.2522 29.9772 26.3147 29.4928 27.2482C29.0084 28.1817 28.242 28.9387 27.3026 29.4115C26.3632 29.8843 25.2987 30.0489 24.2603 29.8818C23.222 29.7147 22.2628 29.2245 21.5192 28.4809C20.7755 27.7372 20.2853 26.778 20.1182 25.7397C19.9511 24.7013 20.1157 23.6368 20.5885 22.6974C21.0613 21.758 21.8183 20.9916 22.7518 20.5072C23.6853 20.0228 24.7478 19.8451 25.7881 19.9994C26.8493 20.1568 27.8317 20.6512 28.5902 21.4098C29.3488 22.1683 29.8433 23.1507 30.0006 24.2119Z" stroke="white" stroke-width="2" stroke-linecap="round" stroke-linejoin="round"/>
<path d="M31.875 18.125H31.8875" stroke="white" stroke-width="2" stroke-linecap="round" stroke-linejoin="round"/>
<circle cx="25" cy="25" r="24.5" stroke="#535863"/>
</svg>
