<svg width="50" height="50" viewBox="0 0 50 50" fill="none" xmlns="http://www.w3.org/2000/svg">
<path d="M38.75 13.7509C37.553 14.5952 36.2276 15.241 34.825 15.6634C34.0722 14.7977 33.0717 14.1842 31.9588 13.9058C30.8459 13.6273 29.6744 13.6973 28.6026 14.1064C27.5308 14.5155 26.6106 15.2439 25.9662 16.193C25.3219 17.1421 24.9846 18.2663 25 19.4134V20.6634C22.8033 20.7203 20.6266 20.2331 18.6638 19.2452C16.7009 18.2572 15.0129 16.7991 13.75 15.0009C13.75 15.0009 8.75 26.2509 20 31.2509C17.4257 32.9983 14.3589 33.8745 11.25 33.7509C22.5 40.0009 36.25 33.7509 36.25 19.3759C36.2488 19.0277 36.2154 18.6803 36.15 18.3384C37.4258 17.0802 38.326 15.4917 38.75 13.7509V13.7509Z" stroke="white" stroke-width="2" stroke-linecap="round" stroke-linejoin="round"/>
<circle cx="25" cy="25" r="24.5" stroke="#535863"/>
</svg>
