<svg width="330" height="330" viewBox="0 0 330 330" fill="none" xmlns="http://www.w3.org/2000/svg">
<path d="M165 0C74.019 0 0 74.019 0 165C0 255.981 74.019 330 165 330C255.981 330 330 255.981 330 165C330 74.019 255.981 0 165 0ZM165 300C90.561 300 30 239.439 30 165C30 90.561 90.561 30 165 30C239.439 30 300 90.561 300 165C300 239.439 239.439 300 165 300Z" fill="#46A858"/>
<path d="M215.912 200.912H114.088C105.804 200.912 99.0879 207.628 99.0879 215.912C99.0879 224.196 105.804 230.912 114.088 230.912H215.912C224.196 230.912 230.912 224.196 230.912 215.912C230.912 207.628 224.196 200.912 215.912 200.912Z" fill="#46A858"/>
<path d="M115.14 147.14C118.87 143.42 121 138.26 121 133C121 127.74 118.87 122.58 115.14 118.859C111.42 115.14 106.26 113 101 113C95.729 113 90.58 115.14 86.859 118.859C83.13 122.58 81 127.729 81 133C81 138.26 83.13 143.42 86.859 147.14C90.58 150.859 95.74 153 101 153C106.26 153 111.42 150.859 115.14 147.14Z" fill="#46A858"/>
<path d="M229 113C223.73 113 218.58 115.14 214.859 118.859C211.14 122.58 209 127.729 209 133C209 138.27 211.14 143.42 214.859 147.14C218.58 150.86 223.74 153 229 153C234.26 153 239.42 150.859 243.14 147.14C246.86 143.42 249 138.26 249 133C249 127.74 246.859 122.58 243.14 118.859C239.42 115.14 234.27 113 229 113Z" fill="#46A858"/>
</svg>
