<svg width="330" height="330" viewBox="0 0 330 330" fill="none" xmlns="http://www.w3.org/2000/svg">
<path d="M165 0C74.019 0 0 74.019 0 165C0 255.981 74.019 330 165 330C255.981 330 330 255.981 330 165C330 74.019 255.982 0 165 0ZM165 300C90.561 300 30 239.44 30 165C30 90.56 90.561 30 165 30C239.439 30 300 90.561 300 165C300 239.439 239.439 300 165 300Z" fill="#0D3A65"/>
<path d="M164.999 179.823C164.998 179.823 165 179.823 164.999 179.823C141.761 179.823 119.912 188.873 103.481 205.305C97.6234 211.162 97.6234 220.66 103.481 226.518C106.41 229.447 110.249 230.912 114.088 230.912C117.927 230.912 121.766 229.447 124.694 226.518C135.46 215.752 149.774 209.824 164.999 209.824C180.224 209.824 194.538 215.753 205.304 226.518C211.161 232.375 220.659 232.375 226.517 226.518C232.375 220.661 232.375 211.163 226.517 205.305C210.085 188.873 188.238 179.823 164.999 179.823Z" fill="#0D3A65"/>
<path d="M115.14 147.14C118.87 143.42 121 138.26 121 133C121 127.74 118.87 122.58 115.14 118.859C111.42 115.14 106.26 113 101 113C95.73 113 90.58 115.14 86.86 118.859C83.14 122.58 81 127.74 81 133C81 138.26 83.14 143.42 86.86 147.14C90.58 150.86 95.74 153 101 153C106.26 153 111.42 150.86 115.14 147.14Z" fill="#0D3A65"/>
<path d="M229 113C223.73 113 218.58 115.14 214.86 118.859C211.13 122.58 209 127.74 209 133C209 138.26 211.13 143.42 214.86 147.14C218.58 150.86 223.74 153 229 153C234.26 153 239.42 150.859 243.14 147.14C246.87 143.42 249 138.26 249 133C249 127.74 246.87 122.58 243.14 118.859C239.42 115.14 234.26 113 229 113Z" fill="#0D3A65"/>
</svg>
